<?xml version="1.0" encoding="UTF-8" standalone="no"?>
<!-- Created with Inkscape (http://www.inkscape.org/) -->

<svg
   width="587.25977mm"
   height="587.25983mm"
   viewBox="0 0 587.25977 587.25982"
   version="1.1"
   id="svg779"
   inkscape:version="1.2.2 (b0a8486541, 2022-12-01)"
   sodipodi:docname="030.svg"
   inkscape:export-filename="2024-12-06_pre-advent-announce_comparator.png"
   inkscape:export-xdpi="72"
   inkscape:export-ydpi="72"
   xmlns:inkscape="http://www.inkscape.org/namespaces/inkscape"
   xmlns:sodipodi="http://sodipodi.sourceforge.net/DTD/sodipodi-0.dtd"
   xmlns="http://www.w3.org/2000/svg"
   xmlns:svg="http://www.w3.org/2000/svg">
  <sodipodi:namedview
     id="namedview781"
     pagecolor="#ffffff"
     bordercolor="#111111"
     borderopacity="1"
     inkscape:showpageshadow="0"
     inkscape:pageopacity="0"
     inkscape:pagecheckerboard="1"
     inkscape:deskcolor="#d1d1d1"
     inkscape:document-units="mm"
     showgrid="false"
     inkscape:zoom="0.50437328"
     inkscape:cx="849.56919"
     inkscape:cy="1134.0807"
     inkscape:window-width="2560"
     inkscape:window-height="1403"
     inkscape:window-x="0"
     inkscape:window-y="0"
     inkscape:window-maximized="1"
     inkscape:current-layer="layer1"
     showguides="true">
    <sodipodi:guide
       position="1740.755,-1643.7475"
       orientation="1,0"
       id="guide10628"
       inkscape:locked="false" />
    <sodipodi:guide
       position="2264.7166,-3065.266"
       orientation="1,0"
       id="guide10632"
       inkscape:locked="false" />
    <sodipodi:guide
       position="2346.0659,-2153.4925"
       orientation="1,0"
       id="guide17780"
       inkscape:locked="false" />
    <sodipodi:guide
       position="2868.649,-2229.8032"
       orientation="1,0"
       id="guide17782"
       inkscape:locked="false" />
    <sodipodi:guide
       position="2963.6047,-2214.3419"
       orientation="1,0"
       id="guide17796"
       inkscape:locked="false" />
    <sodipodi:guide
       position="3482.7757,-2293.8546"
       orientation="1,0"
       id="guide17798"
       inkscape:locked="false" />
    <sodipodi:guide
       position="3600.0207,-1445.2974"
       orientation="0,1"
       id="guide24170"
       inkscape:locked="false" />
    <sodipodi:guide
       position="4123.9824,-1381.7664"
       orientation="1,0"
       id="guide24172"
       inkscape:locked="false" />
    <sodipodi:guide
       position="3599.5335,-952.11395"
       orientation="1,0"
       id="guide24174"
       inkscape:locked="false" />
    <sodipodi:guide
       position="4752.0188,-543.06035"
       orientation="1,0"
       id="guide31859"
       inkscape:locked="false" />
    <sodipodi:guide
       position="5383.7143,-3011.109"
       orientation="1,0"
       id="guide31861"
       inkscape:locked="false" />
  </sodipodi:namedview>
  <defs
     id="defs776" />
  <g
     inkscape:label="Layer 1"
     inkscape:groupmode="layer"
     id="layer1"
     transform="translate(1094.9369,2137.5095)">
    <g
       id="g14396"
       transform="translate(0,-211.66673)">
      <circle
         style="fill:#005a7d;fill-opacity:1;stroke-width:0.122307"
         id="circle13170"
         cx="-800.4975"
         cy="-1632.697"
         r="252.06749"
         inkscape:export-filename="exports/2024-12-06_pre-advent-announce_more_1.png"
         inkscape:export-xdpi="72"
         inkscape:export-ydpi="72" />
      <path
         class="cls-2"
         d="m -640.69048,-1513.3239 c 0.6517,25.7191 14.7793,62.3265 14.7793,62.3265 l -10.9808,15.1201 c -14.9759,4.9224 -19.6869,-4.1456 -23.4408,-10.018 0,0 -12.2159,-34.6416 -21.8443,-58.995 l -6.1016,-17.3116 z"
         id="path13172"
         style="fill:#ffffff;fill-opacity:1;stroke:#ffffff;stroke-width:10.776;stroke-miterlimit:10;stroke-opacity:1;stroke-dasharray:none"
         sodipodi:nodetypes="ccccccc" />
      <path
         class="cls-2"
         d="m -730.04818,-1385.2894 c 6.1745,-23.2365 13.9782,-43.752 25.8827,-65.1324 0,0 15.23,-32.472 23.0609,-57.6181 v 0 c 1.7921,-5.819 7.6869,-9.3406 13.7936,-8.4065 4.8875,0.7874 10.0574,1.5205 15.5911,2.145 2.0093,0.2716 4.0214,0.353 6.0334,0.5702 12.1551,0.335 23.948,0.8281 35.3217,0.9125 5.6869,0.042 11.269,-0.018 16.7392,-0.2506 5.4702,-0.233 14.8268,-1.0643 20.0661,-1.714 1.5043,-0.187 28.7691,-3.6554 29.687,-122.2833 -1.9028,-118.4667 -35.1481,-114.8771 -36.4929,-114.8771 -48.4921,0 -75.721,36.2818 -122.4889,80.1772 -63.1489,59.2694 -102.5176,13.0742 -118.8256,-20.1882 -10.0601,-22.5587 -19.0395,-47.5611 -34.7013,-62.2155 -2.2265,-2.0907 -3.0872,-5.3165 -2.4437,-8.4065 l 1.7921,-8.3333 c 0.2715,-1.0861 -0.4888,-2.0908 -1.6563,-2.2265 -7.4019,-0.4888 -13.5058,2.0908 -18.8957,8.2627 -2.5795,-0.6517 -5.3871,-1.1405 -8.4065,-1.4392 -19.39522,-2.0908 -23.27532,7.7603 -42.09763,7.7603 h -9.1234 c -17.02751,0 -31.25822,8.1134 -38.22023,20.0443 -5.5555,9.5172 -5.7428,19.8732 3.38051,20.8779 -2.81301,10.0249 6.5683,13.9376 27.52211,4.3363 0,0 16.47361,9.4628 39.29822,9.4628 12.33551,0 16.00931,1.9551 20.53562,21.7197 10.9181,48.0607 54.0232,127.0893 141.1673,127.0893 0.9232,1.3033 1.7921,2.5795 2.661,3.7335 14.8009,20.9782 19.3273,47.4875 10.7769,71.5557 -6.8968,19.4685 -15.6617,34.4107 -15.6617,34.4107 0.2715,2.661 0.2715,5.2459 0.2715,7.8309 -0.4248,20.4394 -5.7308,43.6059 -10.7001,57.6018"
         id="path13174"
         style="fill:#ffffff;fill-opacity:1;stroke:#ffffff;stroke-width:10.776;stroke-miterlimit:10;stroke-dasharray:none;stroke-opacity:1"
         sodipodi:nodetypes="ccsscccssccsccccccccsscccsccccccc" />
      <path
         class="cls-1"
         d="m -888.00868,-1746.2986 c -0.4888,0.2715 -1.33051,0.3531 -2.28091,0.4616 -0.6788,4.1354 -4.0864,7.3368 -8.42,7.3368 -4.3309,0 -7.80371,-3.1987 -8.48801,-7.3368 -0.9504,0 -1.7921,-0.2715 -2.2808,-0.4616 -2.1994,-0.9231 4.2548,-6.1203 10.72261,-6.1203 6.4678,0 12.91931,5.189 10.72271,6.1203 z"
         id="path13176"
         style="fill:#005a7d;fill-opacity:1;stroke:none;stroke-width:0px;stroke-opacity:1" />
      <circle
         style="fill:none;fill-opacity:1;stroke:#ffffff;stroke-width:25;stroke-linejoin:round;stroke-dasharray:none;stroke-opacity:1"
         id="circle13178"
         cx="-801.30707"
         cy="-1632.2129"
         r="256.42252" />
      <circle
         style="fill:none;fill-opacity:1;stroke:#005a7d;stroke-width:27.2969;stroke-linejoin:round;stroke-dasharray:none;stroke-opacity:1"
         id="circle13180"
         cx="-801.30707"
         cy="-1632.2129"
         r="279.98148" />
    </g>
  </g>
</svg>
